<?xml version="1.0" encoding="UTF-8"?>
<svg id="Layer_1" data-name="Layer 1" xmlns="http://www.w3.org/2000/svg" xmlns:xlink="http://www.w3.org/1999/xlink" version="1.1" viewBox="0 0 2500 1533">
  <defs>
    <style>
      .cls-1 {
        fill: none;
      }

      .cls-1, .cls-2, .cls-3, .cls-4, .cls-5, .cls-6, .cls-7, .cls-8, .cls-9, .cls-10 {
        stroke-width: 0px;
      }

      .cls-11 {
        mask: url(#mask);
      }

      .cls-2 {
        fill: url(#linear-gradient);
      }

      .cls-3 {
        fill: #539e43;
      }

      .cls-4 {
        fill: url(#linear-gradient-3);
      }

      .cls-4, .cls-5, .cls-6, .cls-7, .cls-8 {
        fill-rule: evenodd;
      }

      .cls-5 {
        fill: url(#linear-gradient-4);
      }

      .cls-6 {
        fill: url(#linear-gradient-5);
      }

      .cls-7 {
        fill: url(#linear-gradient-7);
      }

      .cls-8 {
        fill: url(#linear-gradient-6);
      }

      .cls-9 {
        fill: url(#linear-gradient-2);
      }

      .cls-10 {
        fill: #fff;
      }

      .cls-12 {
        mask: url(#mask-1);
      }
    </style>
    <linearGradient id="linear-gradient" x1="290.1" y1="1307.2" x2="289.7" y2="1306.5" gradientTransform="translate(-153362.7 792993.7) scale(532.1 -606.3)" gradientUnits="userSpaceOnUse">
      <stop offset="0" stop-color="#41873f"/>
      <stop offset=".3" stop-color="#418b3d"/>
      <stop offset=".6" stop-color="#419637"/>
      <stop offset=".9" stop-color="#3fa92d"/>
      <stop offset="1" stop-color="#3fae2a"/>
    </linearGradient>
    <mask id="mask" x="654.7" y="349.3" width="536" height="607.1" maskUnits="userSpaceOnUse">
      <g id="c">
        <path id="a-2" data-name="a" class="cls-10" d="M937.4,353.2c-8.9-5.1-19.9-5.1-28.8,0l-237.6,137.1c-9,5.1-14.1,14.7-14.1,24.8v274.8c0,10.2,5.6,19.7,14.1,24.8l237.6,137.1c8.9,5.1,19.9,5.1,28.8,0l237.6-137.1c9-5.1,14.1-14.7,14.1-24.8v-274.8c0-10.2-5.6-19.7-14.1-24.8l-237.6-137.1Z"/>
      </g>
    </mask>
    <linearGradient id="linear-gradient-2" x1="289.9" y1="1306.8" x2="291" y2="1307.6" gradientTransform="translate(-149757.2 792669.9) scale(519.7 -606)" gradientUnits="userSpaceOnUse">
      <stop offset=".1" stop-color="#41873f"/>
      <stop offset=".4" stop-color="#54a044"/>
      <stop offset=".7" stop-color="#66b848"/>
      <stop offset=".9" stop-color="#6cc04a"/>
    </linearGradient>
    <mask id="mask-1" x="654.7" y="303" width="543.4" height="660.7" maskUnits="userSpaceOnUse">
      <g id="c-2" data-name="c">
        <path id="a-3" data-name="a" class="cls-10" d="M937.4,353.2c-8.9-5.1-19.9-5.1-28.8,0l-237.6,137.1c-9,5.1-14.1,14.7-14.1,24.8v274.8c0,10.2,5.6,19.7,14.1,24.8l237.6,137.1c8.9,5.1,19.9,5.1,28.8,0l237.6-137.1c9-5.1,14.1-14.7,14.1-24.8v-274.8c0-10.2-5.6-19.7-14.1-24.8l-237.6-137.1Z"/>
      </g>
    </mask>
    <linearGradient id="linear-gradient-3" x1="181.6" y1="1440.5" x2="279" y2="1440.5" gradientTransform="translate(-120.9 2744.2) scale(4.5 -1.7)" gradientUnits="userSpaceOnUse">
      <stop offset="0" stop-color="#6cc04a"/>
      <stop offset=".3" stop-color="#66b848"/>
      <stop offset=".6" stop-color="#54a044"/>
      <stop offset=".9" stop-color="#41873f"/>
    </linearGradient>
    <linearGradient id="linear-gradient-4" x1="289.4" y1="1306.9" x2="290.5" y2="1306.9" gradientTransform="translate(-149585.3 793307.1) scale(519.1 -606.5)" gradientUnits="userSpaceOnUse">
      <stop offset="0" stop-color="#6cc04a"/>
      <stop offset=".3" stop-color="#66b848"/>
      <stop offset=".6" stop-color="#54a044"/>
      <stop offset=".9" stop-color="#41873f"/>
    </linearGradient>
    <linearGradient id="linear-gradient-5" x1="21.7" y1="1364" x2="119.1" y2="1364" gradientTransform="translate(995.1 6196.7) scale(1.7 -3.9)" gradientUnits="userSpaceOnUse">
      <stop offset="0" stop-color="#6cc04a"/>
      <stop offset=".3" stop-color="#66b848"/>
      <stop offset=".6" stop-color="#54a044"/>
      <stop offset=".9" stop-color="#41873f"/>
    </linearGradient>
    <linearGradient id="linear-gradient-6" x1="287.9" y1="1307.9" x2="289.9" y2="1307.9" gradientTransform="translate(-76673.1 220057) scale(268.6 -167.6)" gradientUnits="userSpaceOnUse">
      <stop offset="0" stop-color="#6cc04a"/>
      <stop offset=".3" stop-color="#66b848"/>
      <stop offset=".6" stop-color="#54a044"/>
      <stop offset=".9" stop-color="#41873f"/>
    </linearGradient>
    <linearGradient id="linear-gradient-7" x1="290.2" y1="1310.5" x2="289" y2="1306.3" gradientTransform="translate(-76673.1 220057) scale(268.6 -167.6)" gradientUnits="userSpaceOnUse">
      <stop offset="0" stop-color="#41873f"/>
      <stop offset=".3" stop-color="#418b3d"/>
      <stop offset=".6" stop-color="#419637"/>
      <stop offset=".9" stop-color="#3fa92d"/>
      <stop offset="1" stop-color="#3fae2a"/>
    </linearGradient>
  </defs>
  <path class="cls-3" d="M1235.9,1528.6c-8.5,0-16.4-2.3-23.7-6.2l-75-44.6c-11.3-6.2-5.6-8.5-2.3-9.6,15.2-5.1,18.1-6.2,33.9-15.2,1.7-1.1,4-.6,5.6.6l57.6,34.4c2.3,1.1,5.1,1.1,6.8,0l225.1-130.3c2.3-1.1,3.4-3.4,3.4-6.2v-260.1c0-2.8-1.1-5.1-3.4-6.2l-225.1-129.8c-2.3-1.1-5.1-1.1-6.8,0l-225.1,129.8c-2.3,1.1-3.4,3.9-3.4,6.2v260.1c0,2.3,1.1,5.1,3.4,6.2l61.5,35.5c33.3,16.9,54.2-2.8,54.2-22.6v-256.7c0-3.4,2.8-6.8,6.8-6.8h28.8c3.4,0,6.8,2.8,6.8,6.8v256.7c0,44.6-24.3,70.5-66.6,70.5s-23.1,0-51.9-14.1l-59.2-33.9c-14.7-8.5-23.7-24.3-23.7-41.2v-260.1c0-16.9,9-32.7,23.7-41.2l225.1-130.3c14.1-7.9,33.3-7.9,47.4,0l225.1,130.3c14.7,8.5,23.7,24.3,23.7,41.2v260.1c0,16.9-9,32.7-23.7,41.2l-225.1,130.3c-7.3,3.4-15.8,5.1-23.7,5.1h0ZM1305.3,1349.7c-98.7,0-119.1-45.1-119.1-83.5s2.8-6.8,6.8-6.8h29.3c3.4,0,6.2,2.3,6.2,5.6,4.5,29.9,17.5,44.6,77.3,44.6s67.7-10.7,67.7-36.1-5.6-25.4-79.6-32.7c-61.5-6.2-99.9-19.7-99.9-68.8s38.4-72.8,102.7-72.8,107.8,24.8,112.3,79c0,1.7-.6,3.4-1.7,5.1-1.1,1.1-2.8,2.3-4.5,2.3h-29.3c-2.8,0-5.6-2.3-6.2-5.1-6.8-31-24.3-41.2-70.5-41.2s-58.1,18.1-58.1,31.6,7.3,21.4,77.3,30.5c69.4,9,102.1,22,102.1,70.5-.6,49.7-41.2,77.9-112.9,77.9Z"/>
  <path class="cls-10" d="M537.3,511.2c0-10.2-5.6-19.8-14.7-24.8l-239.2-137.7c-4-2.3-8.5-3.4-13-4h-2.3c-4.5,0-9,1.7-13,4L16,486.4c-9,5.1-14.7,14.7-14.7,24.8l.6,370.2c0,5.1,2.8,10.2,7.3,12.4,4.5,2.8,10.2,2.8,14.1,0l142.2-81.3c9-5.1,14.7-14.7,14.7-24.8v-173.2c0-10.2,5.6-19.7,14.7-24.8l60.4-35c4.5-2.8,9.6-4,14.7-4s10.2,1.1,14.1,4l60.4,35c9,5.1,14.7,14.7,14.7,24.8v173.2c0,10.2,5.6,19.7,14.7,24.8l142.2,81.3c4.5,2.8,10.2,2.8,14.7,0,4.5-2.3,7.3-7.3,7.3-12.4l-.6-370.2h0ZM1687.3,1.7c-4.5-2.3-10.2-2.3-14.1,0-4.5,2.8-7.3,7.3-7.3,12.4v366.8c0,3.4-1.7,6.8-5.1,9-3.4,1.7-6.8,1.7-10.2,0l-59.8-34.4c-8.9-5.1-19.9-5.1-28.8,0l-239.2,138.2c-9,5.1-14.7,14.7-14.7,24.8v275.9c0,10.2,5.6,19.8,14.7,24.8l239.2,138.2c8.9,5.1,19.9,5.1,28.8,0l239.2-138.2c9-5.1,14.7-14.7,14.7-24.8V106.6c0-10.7-5.6-20.3-14.7-25.4L1687.3,1.7h0ZM1665.3,703.6c0,2.8-1.1,5.1-3.4,6.2l-81.8,47.4c-2.3,1.1-5,1.1-7.3,0l-81.8-47.4c-2.3-1.1-3.4-3.9-3.4-6.2v-94.8c0-2.8,1.1-5.1,3.4-6.2l81.8-47.4c2.3-1.1,5-1.1,7.3,0l81.8,47.4c2.3,1.1,3.4,3.9,3.4,6.2v94.8h0ZM2483.5,606.6c9-5.1,14.1-14.7,14.1-24.8v-67.1c0-10.2-5.6-19.7-14.1-24.8l-237.6-137.7c-8.9-5.1-19.9-5.1-28.8,0l-239.2,138.2c-9,5.1-14.7,14.7-14.7,24.8v275.9c0,10.2,5.6,19.7,14.7,24.8l237.6,135.4c9,5.1,19.7,5.1,28.2,0l143.9-80.1c4.5-2.3,7.3-7.3,7.3-12.4s-2.8-10.2-7.3-12.4l-240.4-138.2c-4.5-2.8-7.3-7.3-7.3-12.4v-86.3c0-5.1,2.8-10.2,7.3-12.4l75-42.9c4.5-2.8,10.2-2.8,14.7,0l75,42.9c4.5,2.8,7.3,7.3,7.3,12.4v67.7c0,5.1,2.8,10.2,7.3,12.4,4.5,2.8,10.2,2.8,14.7,0l142.2-82.9h0Z"/>
  <path class="cls-3" d="M2227.9,593.6c1.7-1.1,3.9-1.1,5.6,0l45.7,26.5c1.7,1.1,2.8,2.8,2.8,5.1v53c0,2.3-1.1,3.9-2.8,5.1l-45.7,26.5c-1.7,1.1-3.9,1.1-5.6,0l-45.7-26.5c-1.7-1.1-2.8-2.8-2.8-5.1v-53c0-2.3,1.1-4,2.8-5.1l45.7-26.5Z"/>
  <g>
    <path id="a" class="cls-2" d="M937.4,353.2c-8.9-5.1-19.9-5.1-28.8,0l-237.6,137.1c-9,5.1-14.1,14.7-14.1,24.8v274.8c0,10.2,5.6,19.7,14.1,24.8l237.6,137.1c8.9,5.1,19.9,5.1,28.8,0l237.6-137.1c9-5.1,14.1-14.7,14.1-24.8v-274.8c0-10.2-5.6-19.7-14.1-24.8l-237.6-137.1Z"/>
    <g class="cls-11">
      <g>
        <path class="cls-1" d="M908.1,353.2l-238.1,137.1c-9,5.1-15.2,14.7-15.2,24.8v274.8c0,6.8,2.8,13,7.3,18.1l267.5-458.2c-6.8-1.1-14.7-.6-21.4,3.4h0ZM931.2,954.7c2.3-.6,4.5-1.7,6.8-2.8l238.1-137.1c9-5.1,14.7-14.7,14.7-24.8v-274.8c0-7.3-3.4-14.7-8.5-19.7l-251.1,459.3h0Z"/>
        <path class="cls-9" d="M1175.5,490.3l-238.7-137.1c-2.3-1.2-4.8-2.1-7.3-2.8l-267.5,458.2c2.2,2.7,4.9,5,7.9,6.8l238.7,137.1c6.8,3.9,14.7,5.1,22,2.8l251.1-459.3c-1.7-2.3-4-4-6.2-5.6h0Z"/>
      </g>
    </g>
    <g class="cls-12">
      <g>
        <path class="cls-1" d="M1190.8,790v-274.8c0-10.2-6.2-19.7-15.2-24.8l-238.7-137.1c-2.8-1.7-5.8-2.9-9-3.4l261.2,446.3c1.1-1.7,1.7-3.9,1.7-6.2h0ZM669.9,490.3c-9,5.1-15.2,14.7-15.2,24.8v274.8c0,10.2,6.8,19.7,15.2,24.8l238.7,137.1c5.6,3.4,11.8,4.5,18.6,3.4l-255.6-465.5-1.7.6h0Z"/>
        <path class="cls-4" d="M900.7,303l-3.4,1.7h4.5l-1.1-1.7Z"/>
        <path class="cls-5" d="M1176.1,814.8c6.8-3.9,11.8-10.7,14.1-18.1l-261.8-446.9c-6.8-1.1-14.1-.6-20.3,3.4l-237,136.6,255.6,466.1c3.7-.6,7.3-1.7,10.7-3.4l238.7-137.7h0Z"/>
        <path class="cls-6" d="M1198.1,810.3l-1.7-2.8v3.9l1.7-1.1h0Z"/>
        <path class="cls-8" d="M1176.1,814.8l-238.1,137.1c-3.4,1.7-7,2.9-10.7,3.4l4.5,8.5,264.1-152.9v-3.4l-6.8-11.3c-1.1,7.9-6.2,14.7-13,18.6h0Z"/>
        <path class="cls-7" d="M1176.1,814.8l-238.1,137.1c-3.4,1.7-7,2.9-10.7,3.4l4.5,8.5,264.1-152.9v-3.4l-6.8-11.3c-1.1,7.9-6.2,14.7-13,18.6h0Z"/>
      </g>
    </g>
  </g>
</svg>